<svg width="121" height="30" viewBox="0 0 121 30" fill="none" xmlns="http://www.w3.org/2000/svg">
<path d="M13.0664 12.8638L19.083 21.8353C19.4564 22.3948 19.0415 23.1341 18.3569 23.1341H14.9751C14.6847 23.1341 14.4149 22.9942 14.249 22.7544L9.64316 16.0008C9.3527 15.5812 8.7303 15.5013 8.33611 15.841L5.90872 17.899C5.76349 18.0189 5.65976 18.1788 5.63901 18.3586L4.78839 22.4347C4.7054 22.8343 4.3527 23.1141 3.93777 23.1141H0.867227C0.307061 23.1141 -0.0871297 22.6345 0.0166047 22.115L3.87553 3.53271C3.95851 3.13309 4.31121 2.85336 4.72615 2.85336H7.77594C8.33611 2.85336 8.7303 3.3329 8.62656 3.8524L7.42324 9.68685C7.25727 10.4661 8.23237 11.0056 8.85478 10.4861L17.5685 3.05316C17.7344 2.9133 17.9419 2.83337 18.1494 2.83337H21.4066C22.2158 2.83337 22.5892 3.79246 21.9876 4.31197L13.2324 11.7649C12.9004 12.0446 12.8382 12.5042 13.0664 12.8638Z" fill="#222F5A"/>
<path d="M32.7552 12.8638L38.7718 21.8352C39.1452 22.3947 38.7303 23.134 38.0456 23.134H34.6431C34.3527 23.134 34.083 22.9941 33.917 22.7544L29.3112 16.0208C29.0207 15.6012 28.3983 15.5212 28.0041 15.8609L25.5768 17.919C25.4315 18.0389 25.3278 18.1987 25.307 18.3785L24.4564 22.4546C24.3734 22.8543 24.0207 23.134 23.6058 23.134H20.556C19.9958 23.134 19.6017 22.6545 19.7054 22.135L23.5643 3.55264C23.6473 3.15302 24 2.87328 24.4149 2.87328H27.4647C28.0249 2.87328 28.4191 3.35283 28.3153 3.87233L27.112 9.70678C26.9461 10.486 27.9212 11.0255 28.5436 10.506L37.2573 3.07309C37.4232 2.93323 37.6307 2.8533 37.8382 2.8533H41.0954C41.9046 2.8533 42.278 3.81239 41.6763 4.33189L32.9212 11.7648C32.5892 12.0446 32.527 12.5041 32.7552 12.8638Z" fill="#222F5A"/>
<path d="M42.5062 7.56882H46.1992C46.4896 7.56882 46.7178 7.82858 46.6556 8.10831L43.6266 22.7744C43.5851 22.9941 43.3983 23.134 43.1701 23.134H39.4772C39.1867 23.134 38.9585 22.8743 39.0207 22.5945L42.0498 7.92848C42.0913 7.70869 42.278 7.56882 42.5062 7.56882ZM43.2739 4.71154C42.7552 4.25198 42.5062 3.7125 42.5062 3.05312C42.5062 2.27386 42.7967 1.63447 43.3568 1.13495C43.9378 0.615443 44.6639 0.375671 45.5975 0.375671C46.4274 0.375671 47.0913 0.595462 47.5892 1.03504C48.1079 1.47463 48.3568 2.01411 48.3568 2.63352C48.3568 3.47272 48.0664 4.1321 47.4855 4.6516C46.9046 5.17111 46.1577 5.41088 45.2241 5.41088C44.4357 5.3909 43.7718 5.17111 43.2739 4.71154Z" fill="#222F5A"/>
<path d="M64.5187 8.04836L61.469 22.8143C61.4275 22.9941 61.2615 23.134 61.054 23.134H57.4648C57.1951 23.134 57.0084 22.8942 57.0499 22.6545C57.1121 22.2948 56.7179 22.035 56.4067 22.2349C55.2449 22.9941 53.8756 23.3538 52.2988 23.3538C51.0333 23.3538 49.8714 23.0741 48.8134 22.5146C47.7553 21.9551 46.9046 21.1559 46.2822 20.0969C45.6598 19.0379 45.3279 17.7991 45.3279 16.3804C45.3279 14.6621 45.7221 13.1235 46.5105 11.7448C47.2988 10.3661 48.3777 9.28718 49.747 8.50792C51.1163 7.72866 52.61 7.32904 54.249 7.32904C56.3445 7.32904 57.9212 7.88851 58.9586 8.98746C59.1868 9.22723 59.6017 9.10735 59.6847 8.78765L59.8714 7.88851C59.9129 7.6887 60.0789 7.56881 60.2864 7.56881H64.1038C64.3735 7.56881 64.5602 7.7886 64.5187 8.04836ZM56.1992 18.978C56.9254 18.5384 57.4856 17.9389 57.8797 17.1597C58.2739 16.3804 58.4814 15.5013 58.4814 14.5022C58.4814 13.4432 58.1495 12.604 57.5063 11.9846C56.8632 11.3652 55.9503 11.0655 54.7885 11.0655C53.8756 11.0655 53.0457 11.2853 52.3196 11.7249C51.5934 12.1644 51.0333 12.7639 50.6391 13.5431C50.2449 14.3224 50.0374 15.2015 50.0374 16.2006C50.0374 17.2596 50.3694 18.0988 51.0125 18.7182C51.6557 19.3376 52.5685 19.6373 53.7304 19.6373C54.664 19.6173 55.4731 19.4175 56.1992 18.978Z" fill="#222F5A"/>
<path d="M82.2573 4.85142C83.6889 5.97035 84.415 7.50889 84.415 9.487C84.415 11.1854 84.0001 12.664 83.1702 13.9228C82.3403 15.1816 81.1578 16.1607 79.6225 16.84C78.0872 17.5194 76.2822 17.859 74.2076 17.859H70.7636C70.0374 17.859 69.415 18.3586 69.2698 19.0379L68.6059 22.2549C68.4607 22.9342 67.8383 23.4337 67.1121 23.4337H65.3279C64.3735 23.4337 63.6474 22.5945 63.8341 21.6754L67.4233 4.37187C67.5685 3.69252 68.191 3.19299 68.9171 3.19299H76.1785C78.7926 3.19299 80.8258 3.73248 82.2573 4.85142ZM78.1495 12.9637C79.0208 12.2444 79.4773 11.2254 79.4773 9.9066C79.4773 8.94752 79.1453 8.2282 78.4607 7.72868C77.7968 7.24913 76.8217 7.00936 75.5561 7.00936H72.9835C72.2573 7.00936 71.6349 7.50889 71.4897 8.18824L70.6391 12.2843C70.4524 13.1835 71.1785 14.0427 72.1329 14.0427H74.3943C76.0333 14.0427 77.2781 13.683 78.1495 12.9637Z" fill="#F11C33"/>
<path d="M102.61 8.34815L99.5603 23.0941C99.5188 23.274 99.3528 23.4138 99.1453 23.4138H95.5561C95.2864 23.4138 95.0997 23.174 95.1412 22.9343C95.2034 22.5746 94.8092 22.3149 94.498 22.5147C93.3362 23.274 91.9462 23.6336 90.3901 23.6336C89.1246 23.6336 87.9628 23.3539 86.9047 22.7944C85.8466 22.2349 84.996 21.4357 84.3735 20.3767C83.7511 19.3177 83.4192 18.0789 83.4192 16.6602C83.4192 14.9419 83.8134 13.4033 84.6018 12.0247C85.3901 10.646 86.469 9.56699 87.8383 8.78773C89.2076 8.00848 90.7014 7.60886 92.3404 7.60886C94.4358 7.60886 96.0126 8.16832 97.0499 9.26728C97.2781 9.50705 97.6931 9.38716 97.776 9.06747L97.9628 8.16832C98.0043 7.96851 98.1702 7.84863 98.3777 7.84863H102.195C102.465 7.86861 102.652 8.10838 102.61 8.34815ZM94.2906 19.2778C95.0167 18.8382 95.5769 18.2387 95.9711 17.4795C96.3653 16.7002 96.5727 15.821 96.5727 14.822C96.5727 13.763 96.2408 12.9238 95.5976 12.3044C94.9545 11.685 94.0416 11.3853 92.8798 11.3853C91.9669 11.3853 91.137 11.6051 90.4109 12.0446C89.6847 12.4842 89.1246 13.0836 88.7304 13.8429C88.3362 14.6222 88.1287 15.5013 88.1287 16.5004C88.1287 17.5594 88.4607 18.3986 89.1038 19.018C89.747 19.6374 90.6599 19.9371 91.8217 19.9371C92.7553 19.9371 93.5644 19.7173 94.2906 19.2778Z" fill="#F11C33"/>
<path d="M119.954 7.86861C120.556 7.86861 120.929 8.50801 120.598 8.98755L110.577 24.4728C109.415 26.2911 108.295 27.5299 107.195 28.2292C106.095 28.9286 104.768 29.2683 103.191 29.2683C102.34 29.2683 101.531 29.1484 100.722 28.8886C100.245 28.7288 99.8091 28.5689 99.4565 28.3491C99.083 28.1293 98.9793 27.6698 99.2075 27.3101L100.535 25.312C100.764 24.9723 101.22 24.8724 101.573 25.0722C102.154 25.4319 102.838 25.5918 103.564 25.5918C104.166 25.5918 104.685 25.4519 105.12 25.1522C105.556 24.8724 106.012 24.3729 106.469 23.6936L106.49 23.6736C106.573 23.5137 106.614 23.3339 106.573 23.1541L103.108 8.76776C103.004 8.3082 103.357 7.86861 103.855 7.86861H106.967C107.32 7.86861 107.631 8.10839 107.714 8.44806L109.581 16.6603C109.726 17.2996 110.618 17.4595 110.971 16.88L116.49 8.20829C116.635 7.9885 116.884 7.84863 117.133 7.84863H119.954V7.86861Z" fill="#F11C33"/>
</svg>
